<svg xmlns="http://www.w3.org/2000/svg" xmlns:xlink="http://www.w3.org/1999/xlink" width="500" zoomAndPan="magnify" viewBox="0 0 375 221.249992" height="295" preserveAspectRatio="xMidYMid meet" version="1.0"><defs><clipPath id="5717edb136"><path d="M 62.148438 0.257812 L 312.496094 0.257812 L 312.496094 220.503906 L 62.148438 220.503906 Z M 62.148438 0.257812 " clip-rule="nonzero"/></clipPath><clipPath id="f235f52822"><path d="M 0.632812 94.9375 L 31.261719 94.9375 L 31.261719 125.566406 L 0.632812 125.566406 Z M 0.632812 94.9375 " clip-rule="nonzero"/></clipPath><clipPath id="9716145cc9"><path d="M 15.949219 94.9375 C 7.488281 94.9375 0.632812 101.792969 0.632812 110.25 C 0.632812 118.710938 7.488281 125.566406 15.949219 125.566406 C 24.40625 125.566406 31.261719 118.710938 31.261719 110.25 C 31.261719 101.792969 24.40625 94.9375 15.949219 94.9375 Z M 15.949219 94.9375 " clip-rule="nonzero"/></clipPath><clipPath id="5b333bed27"><path d="M 343.738281 94.9375 L 374.367188 94.9375 L 374.367188 125.566406 L 343.738281 125.566406 Z M 343.738281 94.9375 " clip-rule="nonzero"/></clipPath><clipPath id="697851031d"><path d="M 359.050781 94.9375 C 350.59375 94.9375 343.738281 101.792969 343.738281 110.25 C 343.738281 118.710938 350.59375 125.566406 359.050781 125.566406 C 367.511719 125.566406 374.367188 118.710938 374.367188 110.25 C 374.367188 101.792969 367.511719 94.9375 359.050781 94.9375 Z M 359.050781 94.9375 " clip-rule="nonzero"/></clipPath></defs><g clip-path="url(#5717edb136)"><path fill="#bc1823" d="M 187.578125 18.179688 C 131.78125 18.179688 86.542969 63.414062 86.542969 119.21875 C 86.542969 175.015625 131.78125 220.253906 187.578125 220.253906 C 243.382812 220.253906 288.617188 175.019531 288.617188 119.21875 C 288.617188 63.417969 243.382812 18.179688 187.578125 18.179688 Z M 187.578125 194.625 C 145.933594 194.625 112.167969 160.867188 112.167969 119.21875 C 112.167969 77.574219 145.933594 43.8125 187.578125 43.8125 C 229.222656 43.8125 262.988281 77.574219 262.988281 119.222656 C 262.988281 160.867188 229.222656 194.625 187.578125 194.625 Z M 312.65625 103.183594 L 312.65625 135.257812 C 312.65625 142.34375 306.910156 148.089844 299.824219 148.089844 C 295.203125 148.089844 291.167969 145.640625 288.910156 141.976562 C 290.558594 134.648438 291.453125 127.039062 291.453125 119.222656 C 291.453125 111.402344 290.558594 103.792969 288.910156 96.464844 C 289.8125 95 291.003906 93.75 292.394531 92.753906 C 280.558594 45.890625 238.058594 11.109375 187.578125 11.109375 C 137.894531 11.109375 95.957031 44.808594 83.355469 90.546875 C 84.703125 91.40625 85.894531 92.488281 86.871094 93.75 C 84.808594 101.898438 83.703125 110.429688 83.703125 119.21875 C 83.703125 128.003906 84.808594 136.53125 86.871094 144.6875 C 84.367188 147.933594 80.449219 150.039062 76.027344 150.039062 C 68.460938 150.039062 62.328125 143.90625 62.328125 136.339844 L 62.328125 102.09375 C 62.328125 95.738281 66.671875 90.40625 72.546875 88.863281 C 86 37.925781 132.472656 0.257812 187.578125 0.257812 C 243.375 0.257812 290.316406 38.878906 303.101562 90.785156 C 308.597656 92.230469 312.65625 97.230469 312.65625 103.183594 Z M 312.65625 103.183594 " fill-opacity="1" fill-rule="nonzero"/></g><path fill="#050a30" d="M 168.855469 151.28125 C 168.855469 152.855469 167.578125 154.136719 166 154.136719 C 164.421875 154.136719 163.148438 152.863281 163.148438 151.28125 L 163.148438 93.203125 C 163.148438 91.625 164.421875 90.351562 166 90.351562 C 167.578125 90.351562 168.855469 91.625 168.855469 93.203125 Z M 179.644531 101.195312 C 179.644531 99.617188 178.367188 98.335938 176.789062 98.335938 C 175.210938 98.335938 173.9375 99.613281 173.9375 101.195312 L 173.9375 143.292969 C 173.9375 144.871094 175.210938 146.148438 176.789062 146.148438 C 178.367188 146.148438 179.644531 144.871094 179.644531 143.292969 Z M 158.066406 101.195312 C 158.066406 99.617188 156.789062 98.335938 155.207031 98.335938 C 153.628906 98.335938 152.351562 99.613281 152.351562 101.195312 L 152.351562 143.292969 C 152.351562 144.871094 153.628906 146.148438 155.207031 146.148438 C 156.78125 146.148438 158.066406 144.871094 158.066406 143.292969 Z M 190.433594 112.242188 C 190.433594 110.667969 189.15625 109.386719 187.578125 109.386719 C 186 109.386719 184.71875 110.660156 184.71875 112.242188 L 184.71875 132.246094 C 184.71875 133.820312 185.996094 135.097656 187.578125 135.097656 C 189.15625 135.097656 190.433594 133.820312 190.433594 132.246094 Z M 147.269531 112.242188 C 147.269531 110.667969 145.992188 109.386719 144.410156 109.386719 C 142.835938 109.386719 141.554688 110.660156 141.554688 112.242188 L 141.554688 132.246094 C 141.554688 133.820312 142.835938 135.097656 144.410156 135.097656 C 145.988281 135.097656 147.269531 133.820312 147.269531 132.246094 Z M 136.480469 117.890625 C 136.480469 116.3125 135.203125 115.03125 133.628906 115.03125 C 132.050781 115.03125 130.769531 116.308594 130.769531 117.890625 L 130.769531 126.597656 C 130.769531 128.175781 132.046875 129.457031 133.628906 129.457031 C 135.203125 129.457031 136.480469 128.175781 136.480469 126.597656 Z M 206.304688 151.28125 C 206.304688 152.855469 207.585938 154.136719 209.160156 154.136719 C 210.738281 154.136719 212.019531 152.863281 212.019531 151.28125 L 212.019531 93.203125 C 212.019531 91.625 210.738281 90.351562 209.160156 90.351562 C 207.585938 90.351562 206.304688 91.625 206.304688 93.203125 Z M 195.515625 143.292969 C 195.515625 144.871094 196.789062 146.148438 198.371094 146.148438 C 199.949219 146.148438 201.226562 144.871094 201.226562 143.292969 L 201.226562 101.195312 C 201.226562 99.617188 199.949219 98.335938 198.371094 98.335938 C 196.796875 98.335938 195.515625 99.613281 195.515625 101.195312 Z M 217.09375 143.292969 C 217.09375 144.871094 218.367188 146.148438 219.945312 146.148438 C 221.523438 146.148438 222.804688 144.871094 222.804688 143.292969 L 222.804688 101.195312 C 222.804688 99.617188 221.527344 98.335938 219.945312 98.335938 C 218.367188 98.335938 217.09375 99.613281 217.09375 101.195312 Z M 227.882812 132.246094 C 227.882812 133.820312 229.15625 135.097656 230.734375 135.097656 C 232.3125 135.097656 233.589844 133.820312 233.589844 132.246094 L 233.589844 112.242188 C 233.589844 110.667969 232.3125 109.386719 230.734375 109.386719 C 229.15625 109.386719 227.882812 110.660156 227.882812 112.242188 Z M 238.675781 126.597656 C 238.675781 128.175781 239.953125 129.457031 241.535156 129.457031 C 243.109375 129.457031 244.386719 128.175781 244.386719 126.597656 L 244.386719 117.890625 C 244.386719 116.3125 243.105469 115.03125 241.535156 115.03125 C 239.957031 115.03125 238.675781 116.308594 238.675781 117.890625 Z M 238.675781 126.597656 " fill-opacity="1" fill-rule="nonzero"/><g clip-path="url(#f235f52822)"><g clip-path="url(#9716145cc9)"><path fill="#bc1823" d="M 0.632812 94.9375 L 31.261719 94.9375 L 31.261719 125.566406 L 0.632812 125.566406 Z M 0.632812 94.9375 " fill-opacity="1" fill-rule="nonzero"/></g></g><g clip-path="url(#5b333bed27)"><g clip-path="url(#697851031d)"><path fill="#bc1823" d="M 343.738281 94.9375 L 374.367188 94.9375 L 374.367188 125.566406 L 343.738281 125.566406 Z M 343.738281 94.9375 " fill-opacity="1" fill-rule="nonzero"/></g></g></svg>
